<?xml version="1.0" encoding="utf-8"?>
<!-- Generator: Adobe Illustrator 18.1.1, SVG Export Plug-In . SVG Version: 6.00 Build 0)  -->
<svg xmlns:xlink="http://www.w3.org/1999/xlink" version="1.1" id="Layer_2" xmlns="http://www.w3.org/2000/svg" x="0px" y="0px"
	 width="260.9px" height="254.3px" viewBox="0 0 260.9 254.3" enable-background="new 0 0 260.9 254.3" xml:space="preserve">
<g>
	<linearGradient id="XMLID_2_" gradientUnits="userSpaceOnUse" x1="62.1897" y1="235.464" x2="215.3125" y2="143.0467">
		<stop  offset="0" style="stop-color:#FCEE39"/>
		<stop  offset="1" style="stop-color:#F37B3D"/>
	</linearGradient>
	<path id="XMLID_60_" fill="url(#XMLID_2_)" d="M231.7,140.3c1.7-1.6,2.8-3.7,2.9-6.2c0.2-5-3.6-9.3-8.6-9.5
		c-2.4-0.1-4.7,0.7-6.4,2.2l0,0L56,216.3c-3.7,1.6-7,4.3-9.2,8.1c-5.6,9.4-2.5,21.6,6.9,27.1c6.7,4,14.7,3.5,20.8-0.4l0,0l0,0
		c0.5-0.3,0.9-0.6,1.4-1L228.1,143C229.1,142.4,231.2,140.8,231.7,140.3L231.7,140.3L231.7,140.3z"/>
	<linearGradient id="XMLID_3_" gradientUnits="userSpaceOnUse" x1="94.4543" y1="13.4928" x2="234.2142" y2="135.8485">
		<stop  offset="0" style="stop-color:#EF5A6B"/>
		<stop  offset="0.57" style="stop-color:#F26F4E"/>
		<stop  offset="1" style="stop-color:#F37B3D"/>
	</linearGradient>
	<path id="XMLID_59_" fill="url(#XMLID_3_)" d="M231.9,127.2L231.9,127.2L107.4,4.9c-2.8-3-6.7-4.9-11.1-4.9
		C88,0,81.2,6.8,81.2,15.1v0c0,4,1.6,7.7,4.2,10.4l0,0l0.1,0c0.7,0.7,1.5,1.4,2.3,2l131.6,112.7l0,0c1.5,1.4,3.5,2.4,5.8,2.5
		c5,0.2,9.3-3.6,9.5-8.6C234.7,131.4,233.7,129,231.9,127.2z"/>
	<linearGradient id="XMLID_4_" gradientUnits="userSpaceOnUse" x1="103.4114" y1="124.2981" x2="20.5819" y2="72.5706">
		<stop  offset="0" style="stop-color:#7C59A4"/>
		<stop  offset="0.3852" style="stop-color:#AF4C92"/>
		<stop  offset="0.7654" style="stop-color:#DC4183"/>
		<stop  offset="0.957" style="stop-color:#ED3D7D"/>
	</linearGradient>
	<path id="XMLID_58_" fill="url(#XMLID_4_)" d="M111.5,116.3c-0.2-0.1-76.8-60.7-78.4-61.7L33,54.6l0,0c-1.1-0.7-2.3-1.2-3.5-1.7
		C18.2,48.7,5.6,54.4,1.4,65.7c-3.7,10,0.3,20.9,9,26.2l0,0l0.1,0c1.2,0.7,2.4,1.3,3.7,1.8c0.8,0.3,88.6,36.7,88.6,36.7l0,0
		c3.4,1.5,7.6,0.7,10-2.4C115.8,124.5,115.1,119.2,111.5,116.3z"/>
	<linearGradient id="XMLID_5_" gradientUnits="userSpaceOnUse" x1="101.9015" y1="7.2303" x2="21.0363" y2="74.0177">
		<stop  offset="0" style="stop-color:#EF5A6B"/>
		<stop  offset="0.364" style="stop-color:#EE4E72"/>
		<stop  offset="1" style="stop-color:#ED3D7D"/>
	</linearGradient>
	<path id="XMLID_57_" fill="url(#XMLID_5_)" d="M96.3,0c-3.3,0-6.4,1.1-8.9,2.9L9.5,55.3c-0.2,0.1-0.3,0.2-0.5,0.3L9,55.7l0,0
		c-3.3,2.4-6,5.8-7.6,10C-2.8,77,2.9,89.6,14.2,93.8c7.1,2.6,14.6,1.4,20.4-2.7l0,0l0,0c1.3-0.9,2.4-2,3.5-3.2L105.6,27l0,0
		c3.5-2.8,5.8-7.1,5.8-11.9v0C111.4,6.8,104.6,0,96.3,0z"/>
	<g id="XMLID_31_">
		<rect id="XMLID_56_" x="67.5" y="73.1" width="99.5" height="99.5"/>
		<rect id="XMLID_55_" x="76.1" y="153.9" fill="#FFFFFF" width="37.3" height="6.2"/>
		<g id="XMLID_32_">
			<path id="XMLID_53_" fill="#FFFFFF" d="M75.7,99.3l2.9-2.7c0.8,1,1.5,1.5,2.5,1.5c1.1,0,1.8-0.8,1.8-2.3l0-10.3l4.5,0l0,10.3
				c0,2-0.5,3.5-1.6,4.6c-1.1,1.1-2.6,1.6-4.4,1.6C78.6,102,76.9,100.8,75.7,99.3z"/>
			<path id="XMLID_51_" fill="#FFFFFF" d="M88.5,85.5l13,0v3.8l-8.6,0v2.5l7.8,0l0,3.5l-7.8,0l0,2.6l8.7,0l0,3.8l-13.2,0L88.5,85.5z
				"/>
			<path id="XMLID_49_" fill="#FFFFFF" d="M107.4,89.5l-4.8,0l0-3.9l14.2,0l0,3.9l-4.9,0l0,12.3l-4.5,0L107.4,89.5z"/>
			<path id="XMLID_45_" fill="#FFFFFF" d="M76.1,105.5l8.3,0c2,0,3.5,0.5,4.4,1.4c0.6,0.7,1,1.5,1,2.6v0c0,1.9-1.1,3-2.5,3.6
				c2,0.6,3.2,1.8,3.2,4v0c0,2.8-2.3,4.5-6.1,4.5l-8.4,0L76.1,105.5z M85.5,110.5c0-0.9-0.7-1.4-2-1.4l-2.9,0l0,2.9h2.8
				C84.7,112,85.5,111.5,85.5,110.5L85.5,110.5z M83.9,115.1l-3.4,0l0,3H84c1.4,0,2.2-0.5,2.2-1.5v0
				C86.1,115.7,85.4,115.1,83.9,115.1z"/>
			<path id="XMLID_42_" fill="#FFFFFF" d="M91.3,105.5l7.7,0c2.5,0,4.2,0.6,5.3,1.7c1,1,1.4,2.2,1.4,3.8v0c0,2.5-1.3,4.1-3.3,5
				l3.9,5.7l-5.2,0l-3.3-4.9l-2,0l0,4.9l-4.5,0L91.3,105.5z M98.8,113.3c1.5,0,2.4-0.7,2.4-1.9v0c0-1.3-1-1.9-2.4-1.9l-3,0l0,3.9
				H98.8z"/>
			<path id="XMLID_39_" fill="#FFFFFF" d="M111,105.4h4.3l6.9,16.3l-4.8,0l-1.2-2.9l-6.3,0l-1.2,2.9l-4.7,0L111,105.4z M114.9,115.3
				l-1.8-4.6l-1.8,4.6H114.9z"/>
			<path id="XMLID_37_" fill="#FFFFFF" d="M122.7,105.5l4.5,0l0,16.2l-4.5,0L122.7,105.5z"/>
			<path id="XMLID_35_" fill="#FFFFFF" d="M128.3,105.5l4.2,0l6.7,8.6l0-8.6l4.4,0l0,16.2l-3.9,0l-7-8.9l0,8.9l-4.4,0L128.3,105.5z"
				/>
			<path id="XMLID_33_" fill="#FFFFFF" d="M143.9,119.3l2.5-3c1.6,1.3,3.4,1.9,5.3,1.9c1.2,0,1.9-0.4,1.9-1.1v0c0-0.7-0.5-1-2.8-1.6
				c-3.5-0.8-6.1-1.8-6.1-5.1v0c0-3,2.4-5.2,6.3-5.2c2.8,0,4.9,0.7,6.7,2.2l-2.2,3.2c-1.5-1.1-3.1-1.6-4.5-1.6c-1.1,0-1.6,0.4-1.6,1
				v0c0,0.7,0.6,1.1,2.8,1.6c3.7,0.8,6,2,6,5.1v0c0,3.3-2.6,5.3-6.6,5.3C148.7,122,146,121.1,143.9,119.3z"/>
		</g>
	</g>
</g>
<g>
	<g>
		<path fill="#FFFFFF" d="M175,130.5h-3.7v-0.7h8.1v0.7h-3.7v9.8H175V130.5z"/>
		<path fill="#FFFFFF" d="M180.7,129.8h0.8v4.9h6.8v-4.9h0.8v10.6h-0.8v-4.9h-6.8v4.9h-0.8V129.8z"/>
		<path fill="#FFFFFF" d="M191,129.8h7.5v0.7h-6.7v4.1h6.1v0.7h-6.1v4.2h6.8v0.7H191V129.8z"/>
		<path fill="#FFFFFF" d="M203.4,129.8h3.5c3.3,0,5.6,2.3,5.6,5.3v0c0,3-2.3,5.3-5.6,5.3h-3.5V129.8z M204.2,130.5v9.1h2.7
			c2.9,0,4.8-2,4.8-4.5v0c0-2.5-1.9-4.6-4.8-4.6H204.2z"/>
		<path fill="#FFFFFF" d="M214.1,129.8h4.4c1.3,0,2.3,0.4,3,1c0.5,0.5,0.8,1.2,0.8,2v0c0,1.8-1.3,2.8-3.1,3l3.5,4.5h-1l-3.4-4.4
			h-3.5v4.4h-0.8V129.8z M218.5,135.3c1.8,0,3.1-0.9,3.1-2.4v0c0-1.4-1.1-2.3-3-2.3h-3.6v4.8H218.5z"/>
		<path fill="#FFFFFF" d="M224,129.8h0.8v10.6H224V129.8z"/>
		<path fill="#FFFFFF" d="M226,129.8h0.9l4.1,9.7l4.2-9.7h0.8l-4.6,10.6h-0.7L226,129.8z"/>
		<path fill="#FFFFFF" d="M237.1,129.8h7.5v0.7h-6.7v4.1h6.1v0.7h-6.1v4.2h6.8v0.7h-7.6V129.8z"/>
		<path fill="#FFFFFF" d="M175,145.6h-3.7v-0.7h8.1v0.7h-3.7v9.8H175V145.6z"/>
		<path fill="#FFFFFF" d="M179.4,150.2L179.4,150.2c0-2.9,2.1-5.5,5.3-5.5s5.3,2.6,5.3,5.4v0c0,2.9-2.1,5.5-5.3,5.5
			S179.4,153.1,179.4,150.2z M189.2,150.2L189.2,150.2c0-2.6-1.9-4.8-4.5-4.8c-2.6,0-4.5,2.1-4.5,4.7v0c0,2.6,1.9,4.8,4.5,4.8
			S189.2,152.8,189.2,150.2z"/>
		<path fill="#FFFFFF" d="M195,144.9h3.5c3.3,0,5.6,2.3,5.6,5.3v0c0,3-2.3,5.3-5.6,5.3H195V144.9z M195.8,145.6v9.1h2.7
			c2.9,0,4.8-2,4.8-4.5v0c0-2.5-1.9-4.6-4.8-4.6H195.8z"/>
		<path fill="#FFFFFF" d="M205.7,144.9h7.5v0.7h-6.7v4.1h6.1v0.7h-6.1v4.2h6.8v0.7h-7.6V144.9z"/>
		<path fill="#FFFFFF" d="M213.8,144.9h0.9l4.1,9.7l4.2-9.7h0.8l-4.6,10.6h-0.7L213.8,144.9z"/>
		<path fill="#FFFFFF" d="M224.9,144.9h7.5v0.7h-6.7v4.1h6.1v0.7h-6.1v4.2h6.8v0.7h-7.6V144.9z"/>
		<path fill="#FFFFFF" d="M233.9,144.9h0.8v9.8h6.2v0.7h-7V144.9z"/>
		<path fill="#FFFFFF" d="M241,150.2L241,150.2c0-2.9,2.1-5.5,5.3-5.5s5.3,2.6,5.3,5.4v0c0,2.9-2.1,5.5-5.3,5.5S241,153.1,241,150.2
			z M250.8,150.2L250.8,150.2c0-2.6-1.9-4.8-4.5-4.8c-2.6,0-4.5,2.1-4.5,4.7v0c0,2.6,1.9,4.8,4.5,4.8S250.8,152.8,250.8,150.2z"/>
		<path fill="#FFFFFF" d="M253.2,144.9h3.8c2.3,0,3.9,1.2,3.9,3.2v0c0,2.2-1.9,3.4-4.1,3.4H254v3.9h-0.8V144.9z M256.9,150.8
			c2,0,3.3-1,3.3-2.6v0c0-1.7-1.3-2.6-3.2-2.6h-3v5.2H256.9z"/>
	</g>
</g>
</svg>
